<svg width="25" height="28" viewBox="0 0 25 28" fill="none" xmlns="http://www.w3.org/2000/svg"><ellipse cx="12.5" cy="14" rx="12.5" ry="14" fill="#BF83FF"/><path fill-rule="evenodd" clip-rule="evenodd" d="M8 10.5C8 9.11929 9.02975 8 10.3 8H13.75V10.5C13.75 11.8807 14.7797 13 16.05 13H17.2V18C17.2 19.3807 16.1703 20.5 14.9 20.5H10.3C9.02975 20.5 8 19.3807 8 18V10.5ZM10.3 13.625C9.98244 13.625 9.725 13.9048 9.725 14.25C9.725 14.5952 9.98244 14.875 10.3 14.875H11.45C11.7676 14.875 12.025 14.5952 12.025 14.25C12.025 13.9048 11.7676 13.625 11.45 13.625H10.3ZM10.3 16.125C9.98244 16.125 9.725 16.4048 9.725 16.75C9.725 17.0952 9.98244 17.375 10.3 17.375H12.6C12.9176 17.375 13.175 17.0952 13.175 16.75C13.175 16.4048 12.9176 16.125 12.6 16.125H10.3ZM15.292 9.37424L15.2167 10.6018C15.1936 10.9791 15.4816 11.2921 15.8287 11.267L16.9581 11.1852C17.451 11.1494 17.6757 10.4993 17.3264 10.1196L16.2723 8.97388C15.923 8.59418 15.3249 8.83846 15.292 9.37424Z" fill="white"/></svg>